<?xml version="1.0" standalone="no"?><svg xmlns="http://www.w3.org/2000/svg" viewBox="0 0 1440 320"><path fill="#27ae60" fill-opacity="1" d="M0,256L24,245.3C48,235,96,213,144,218.7C192,224,240,256,288,229.3C336,203,384,117,432,96C480,75,528,117,576,144C624,171,672,181,720,202.7C768,224,816,256,864,256C912,256,960,224,1008,192C1056,160,1104,128,1152,101.3C1200,75,1248,53,1296,53.3C1344,53,1392,75,1416,85.3L1440,96L1440,320L1416,320C1392,320,1344,320,1296,320C1248,320,1200,320,1152,320C1104,320,1056,320,1008,320C960,320,912,320,864,320C816,320,768,320,720,320C672,320,624,320,576,320C528,320,480,320,432,320C384,320,336,320,288,320C240,320,192,320,144,320C96,320,48,320,24,320L0,320Z"></path></svg>